<mxfile host="app.diagrams.net" modified="2021-12-10T02:19:19.140Z" agent="5.0 (Windows NT 10.0; Win64; x64) AppleWebKit/537.36 (KHTML, like Gecko) Chrome/96.0.4664.45 Safari/537.36" etag="EXwIIQ3Ypk_0lBUBQmOp" version="14.6.6" type="github">
  <diagram id="XYoPtG_srNe3kuM2UrWh" name="第 1 页">
    <mxGraphModel dx="1422" dy="839" grid="1" gridSize="10" guides="1" tooltips="1" connect="1" arrows="1" fold="1" page="1" pageScale="1" pageWidth="827" pageHeight="1169" math="0" shadow="0">
      <root>
        <mxCell id="0" />
        <mxCell id="1" parent="0" />
        <mxCell id="7F0sp1k4lVNHFU7CK11f-2" value="注册中心" style="strokeWidth=2;html=1;shape=mxgraph.flowchart.start_1;whiteSpace=wrap;" parent="1" vertex="1">
          <mxGeometry x="514" y="405" width="100" height="60" as="geometry" />
        </mxCell>
        <mxCell id="7F0sp1k4lVNHFU7CK11f-3" value="soul网关" style="strokeWidth=2;html=1;shape=mxgraph.flowchart.start_1;whiteSpace=wrap;" parent="1" vertex="1">
          <mxGeometry x="300" y="405" width="100" height="60" as="geometry" />
        </mxCell>
        <mxCell id="_CCSlIzPFPLW3wZNSq3F-3" value="" style="edgeStyle=orthogonalEdgeStyle;rounded=0;orthogonalLoop=1;jettySize=auto;html=1;" edge="1" parent="1" source="7F0sp1k4lVNHFU7CK11f-5" target="_CCSlIzPFPLW3wZNSq3F-2">
          <mxGeometry relative="1" as="geometry" />
        </mxCell>
        <mxCell id="7F0sp1k4lVNHFU7CK11f-5" value="用户" style="strokeWidth=2;html=1;shape=mxgraph.flowchart.start_1;whiteSpace=wrap;" parent="1" vertex="1">
          <mxGeometry x="10" y="407.5" width="100" height="60" as="geometry" />
        </mxCell>
        <mxCell id="7F0sp1k4lVNHFU7CK11f-8" value="网关注册" style="text;html=1;align=center;verticalAlign=middle;resizable=0;points=[];autosize=1;strokeColor=none;" parent="1" vertex="1">
          <mxGeometry x="420" y="405" width="60" height="20" as="geometry" />
        </mxCell>
        <mxCell id="7F0sp1k4lVNHFU7CK11f-9" value="获取服务IP" style="text;html=1;align=center;verticalAlign=middle;resizable=0;points=[];autosize=1;strokeColor=none;" parent="1" vertex="1">
          <mxGeometry x="420" y="445" width="70" height="20" as="geometry" />
        </mxCell>
        <mxCell id="7F0sp1k4lVNHFU7CK11f-11" style="edgeStyle=orthogonalEdgeStyle;rounded=0;orthogonalLoop=1;jettySize=auto;html=1;" parent="1" source="7F0sp1k4lVNHFU7CK11f-10" edge="1">
          <mxGeometry relative="1" as="geometry">
            <mxPoint x="564" y="403" as="targetPoint" />
          </mxGeometry>
        </mxCell>
        <mxCell id="7F0sp1k4lVNHFU7CK11f-10" value="auth认证服务" style="strokeWidth=2;html=1;shape=mxgraph.flowchart.start_1;whiteSpace=wrap;" parent="1" vertex="1">
          <mxGeometry x="514" y="235" width="100" height="60" as="geometry" />
        </mxCell>
        <mxCell id="7F0sp1k4lVNHFU7CK11f-13" style="edgeStyle=orthogonalEdgeStyle;rounded=0;orthogonalLoop=1;jettySize=auto;html=1;entryX=0.5;entryY=1;entryDx=0;entryDy=0;entryPerimeter=0;" parent="1" source="7F0sp1k4lVNHFU7CK11f-12" target="7F0sp1k4lVNHFU7CK11f-2" edge="1">
          <mxGeometry relative="1" as="geometry" />
        </mxCell>
        <mxCell id="7F0sp1k4lVNHFU7CK11f-12" value="" style="strokeWidth=2;html=1;shape=mxgraph.flowchart.start_1;whiteSpace=wrap;" parent="1" vertex="1">
          <mxGeometry x="514" y="580" width="100" height="60" as="geometry" />
        </mxCell>
        <mxCell id="7F0sp1k4lVNHFU7CK11f-15" value="" style="endArrow=classic;html=1;entryX=0;entryY=0.5;entryDx=0;entryDy=0;entryPerimeter=0;exitX=0.5;exitY=0;exitDx=0;exitDy=0;exitPerimeter=0;" parent="1" source="7F0sp1k4lVNHFU7CK11f-3" target="7F0sp1k4lVNHFU7CK11f-10" edge="1">
          <mxGeometry width="50" height="50" relative="1" as="geometry">
            <mxPoint x="490" y="445" as="sourcePoint" />
            <mxPoint x="540" y="395" as="targetPoint" />
            <Array as="points" />
          </mxGeometry>
        </mxCell>
        <mxCell id="7F0sp1k4lVNHFU7CK11f-16" value="" style="endArrow=classic;html=1;entryX=0;entryY=0.5;entryDx=0;entryDy=0;entryPerimeter=0;exitX=0.5;exitY=1;exitDx=0;exitDy=0;exitPerimeter=0;" parent="1" source="7F0sp1k4lVNHFU7CK11f-3" target="7F0sp1k4lVNHFU7CK11f-12" edge="1">
          <mxGeometry width="50" height="50" relative="1" as="geometry">
            <mxPoint x="360" y="415" as="sourcePoint" />
            <mxPoint x="474" y="295" as="targetPoint" />
            <Array as="points" />
          </mxGeometry>
        </mxCell>
        <mxCell id="7F0sp1k4lVNHFU7CK11f-18" value="路由登录获取token/验证token" style="text;html=1;align=center;verticalAlign=middle;resizable=0;points=[];autosize=1;strokeColor=none;rotation=-40;" parent="1" vertex="1">
          <mxGeometry x="340" y="315" width="170" height="20" as="geometry" />
        </mxCell>
        <mxCell id="7F0sp1k4lVNHFU7CK11f-22" value="" style="endArrow=classic;html=1;exitX=1.03;exitY=0.367;exitDx=0;exitDy=0;exitPerimeter=0;entryX=0.03;entryY=0.35;entryDx=0;entryDy=0;entryPerimeter=0;" parent="1" source="7F0sp1k4lVNHFU7CK11f-3" target="7F0sp1k4lVNHFU7CK11f-2" edge="1">
          <mxGeometry width="50" height="50" relative="1" as="geometry">
            <mxPoint x="450" y="475" as="sourcePoint" />
            <mxPoint x="500" y="425" as="targetPoint" />
          </mxGeometry>
        </mxCell>
        <mxCell id="7F0sp1k4lVNHFU7CK11f-23" value="" style="endArrow=classic;html=1;entryX=1;entryY=0.667;entryDx=0;entryDy=0;entryPerimeter=0;" parent="1" target="7F0sp1k4lVNHFU7CK11f-3" edge="1">
          <mxGeometry width="50" height="50" relative="1" as="geometry">
            <mxPoint x="510" y="445" as="sourcePoint" />
            <mxPoint x="540" y="395" as="targetPoint" />
          </mxGeometry>
        </mxCell>
        <mxCell id="7F0sp1k4lVNHFU7CK11f-25" value="" style="endArrow=classic;html=1;entryX=0.75;entryY=0.092;entryDx=0;entryDy=0;entryPerimeter=0;exitX=0.06;exitY=0.825;exitDx=0;exitDy=0;exitPerimeter=0;" parent="1" source="7F0sp1k4lVNHFU7CK11f-10" target="7F0sp1k4lVNHFU7CK11f-3" edge="1">
          <mxGeometry width="50" height="50" relative="1" as="geometry">
            <mxPoint x="530" y="277.5" as="sourcePoint" />
            <mxPoint x="540" y="395" as="targetPoint" />
          </mxGeometry>
        </mxCell>
        <mxCell id="7F0sp1k4lVNHFU7CK11f-26" value="认证结果" style="text;html=1;align=center;verticalAlign=middle;resizable=0;points=[];autosize=1;strokeColor=none;rotation=-40;" parent="1" vertex="1">
          <mxGeometry x="430" y="345" width="60" height="20" as="geometry" />
        </mxCell>
        <mxCell id="7F0sp1k4lVNHFU7CK11f-27" value="网关注册" style="text;html=1;align=center;verticalAlign=middle;resizable=0;points=[];autosize=1;strokeColor=none;rotation=90;" parent="1" vertex="1">
          <mxGeometry x="540" y="335" width="60" height="20" as="geometry" />
        </mxCell>
        <mxCell id="7F0sp1k4lVNHFU7CK11f-29" value="网关注册" style="text;html=1;align=center;verticalAlign=middle;resizable=0;points=[];autosize=1;strokeColor=none;rotation=90;" parent="1" vertex="1">
          <mxGeometry x="540" y="515" width="60" height="20" as="geometry" />
        </mxCell>
        <mxCell id="_CCSlIzPFPLW3wZNSq3F-5" value="" style="edgeStyle=orthogonalEdgeStyle;rounded=0;orthogonalLoop=1;jettySize=auto;html=1;" edge="1" parent="1" source="_CCSlIzPFPLW3wZNSq3F-2" target="7F0sp1k4lVNHFU7CK11f-5">
          <mxGeometry relative="1" as="geometry" />
        </mxCell>
        <mxCell id="_CCSlIzPFPLW3wZNSq3F-2" value="nginx反向代理" style="rounded=1;whiteSpace=wrap;html=1;" vertex="1" parent="1">
          <mxGeometry x="140" y="407.5" width="90" height="60" as="geometry" />
        </mxCell>
        <mxCell id="_CCSlIzPFPLW3wZNSq3F-7" value="basic服务" style="ellipse;whiteSpace=wrap;html=1;" vertex="1" parent="1">
          <mxGeometry x="700" y="315" width="120" height="60" as="geometry" />
        </mxCell>
        <mxCell id="_CCSlIzPFPLW3wZNSq3F-8" value="" style="endArrow=classic;html=1;entryX=0.008;entryY=0.292;entryDx=0;entryDy=0;entryPerimeter=0;exitX=0.97;exitY=0.675;exitDx=0;exitDy=0;exitPerimeter=0;" edge="1" parent="1" source="7F0sp1k4lVNHFU7CK11f-10" target="_CCSlIzPFPLW3wZNSq3F-7">
          <mxGeometry width="50" height="50" relative="1" as="geometry">
            <mxPoint x="630" y="317.5" as="sourcePoint" />
            <mxPoint x="680" y="267.5" as="targetPoint" />
          </mxGeometry>
        </mxCell>
        <mxCell id="_CCSlIzPFPLW3wZNSq3F-9" value="" style="endArrow=classic;html=1;entryX=0.93;entryY=0.825;entryDx=0;entryDy=0;entryPerimeter=0;exitX=0;exitY=0.5;exitDx=0;exitDy=0;" edge="1" parent="1" source="_CCSlIzPFPLW3wZNSq3F-7" target="7F0sp1k4lVNHFU7CK11f-10">
          <mxGeometry width="50" height="50" relative="1" as="geometry">
            <mxPoint x="610" y="367.5" as="sourcePoint" />
            <mxPoint x="660" y="317.5" as="targetPoint" />
          </mxGeometry>
        </mxCell>
        <mxCell id="_CCSlIzPFPLW3wZNSq3F-10" value="" style="endArrow=classic;html=1;exitX=1;exitY=0.25;exitDx=0;exitDy=0;entryX=0.04;entryY=0.267;entryDx=0;entryDy=0;entryPerimeter=0;" edge="1" parent="1" source="_CCSlIzPFPLW3wZNSq3F-2" target="7F0sp1k4lVNHFU7CK11f-3">
          <mxGeometry width="50" height="50" relative="1" as="geometry">
            <mxPoint x="250" y="470" as="sourcePoint" />
            <mxPoint x="290" y="420" as="targetPoint" />
          </mxGeometry>
        </mxCell>
        <mxCell id="_CCSlIzPFPLW3wZNSq3F-11" value="" style="endArrow=classic;html=1;entryX=0.989;entryY=0.658;entryDx=0;entryDy=0;entryPerimeter=0;" edge="1" parent="1" target="_CCSlIzPFPLW3wZNSq3F-2">
          <mxGeometry width="50" height="50" relative="1" as="geometry">
            <mxPoint x="298" y="447" as="sourcePoint" />
            <mxPoint x="440" y="400" as="targetPoint" />
          </mxGeometry>
        </mxCell>
        <mxCell id="_CCSlIzPFPLW3wZNSq3F-12" value="白名单、鉴权" style="text;html=1;align=center;verticalAlign=middle;resizable=0;points=[];autosize=1;strokeColor=none;" vertex="1" parent="1">
          <mxGeometry x="220" y="405" width="90" height="20" as="geometry" />
        </mxCell>
        <mxCell id="_CCSlIzPFPLW3wZNSq3F-13" value="响应" style="text;html=1;align=center;verticalAlign=middle;resizable=0;points=[];autosize=1;strokeColor=none;" vertex="1" parent="1">
          <mxGeometry x="240" y="445" width="40" height="20" as="geometry" />
        </mxCell>
        <mxCell id="_CCSlIzPFPLW3wZNSq3F-14" value="通过feign调用&lt;br&gt;查询用户账号信息" style="text;html=1;align=center;verticalAlign=middle;resizable=0;points=[];autosize=1;strokeColor=none;rotation=30;" vertex="1" parent="1">
          <mxGeometry x="614" y="270" width="110" height="30" as="geometry" />
        </mxCell>
        <mxCell id="_CCSlIzPFPLW3wZNSq3F-15" value="查询结果" style="text;html=1;align=center;verticalAlign=middle;resizable=0;points=[];autosize=1;strokeColor=none;rotation=30;" vertex="1" parent="1">
          <mxGeometry x="614" y="315" width="60" height="20" as="geometry" />
        </mxCell>
      </root>
    </mxGraphModel>
  </diagram>
</mxfile>
